<svg xmlns="http://www.w3.org/2000/svg" width="37" height="34" viewBox="0 0 37 34">
  <metadata><?xpacket begin="﻿" id="W5M0MpCehiHzreSzNTczkc9d"?>
<x:xmpmeta xmlns:x="adobe:ns:meta/" x:xmptk="Adobe XMP Core 5.6-c140 79.160451, 2017/05/06-01:08:21        ">
   <rdf:RDF xmlns:rdf="http://www.w3.org/1999/02/22-rdf-syntax-ns#">
      <rdf:Description rdf:about=""/>
   </rdf:RDF>
</x:xmpmeta>
                                                                                                    
                                                                                                    
                                                                                                    
                                                                                                    
                                                                                                    
                                                                                                    
                                                                                                    
                                                                                                    
                                                                                                    
                                                                                                    
                                                                                                    
                                                                                                    
                                                                                                    
                                                                                                    
                                                                                                    
                                                                                                    
                                                                                                    
                                                                                                    
                                                                                                    
                                                                                                    
                           
<?xpacket end="w"?></metadata>
<defs>
    <style>
      .cls-1 {
        fill: #a2abb8;
        fill-rule: evenodd;
      }
    </style>
  </defs>
  <path id="icon" class="cls-1" d="M3144.9,698.62v3.33a5.782,5.782,0,0,0,0,11.128v16.3a1.6,1.6,0,1,0,3.2,0V713.122a5.786,5.786,0,0,0,0-11.129v-3.33a1.605,1.605,0,0,0-1.6-1.62A1.54,1.54,0,0,0,3144.9,698.62Zm4.2,8.894a2.625,2.625,0,0,1-2.6,2.629,2.629,2.629,0,0,1,0-5.258A2.625,2.625,0,0,1,3149.1,707.514Zm-13.69,21.863v-3.461a5.787,5.787,0,0,0,0-11.13V698.62A1.614,1.614,0,0,0,3133.8,697a1.585,1.585,0,0,0-1.6,1.621v16.166a5.787,5.787,0,0,0,0,11.13v3.461a1.612,1.612,0,0,0,1.6,1.621A1.587,1.587,0,0,0,3135.41,729.377Zm-4.21-9.025a2.624,2.624,0,0,1,2.6-2.629,2.564,2.564,0,0,1,2.6,2.629,2.619,2.619,0,0,1-2.6,2.628A2.685,2.685,0,0,1,3131.2,720.352Zm26.39-21.732v16.166a5.787,5.787,0,0,0,0,11.13v3.461a1.605,1.605,0,0,0,1.6,1.621,1.587,1.587,0,0,0,1.61-1.621v-3.461a5.787,5.787,0,0,0,0-11.13V698.62a1.614,1.614,0,0,0-1.61-1.621A1.579,1.579,0,0,0,3157.59,698.62Zm4.2,21.732a2.617,2.617,0,0,1-2.6,2.628,2.629,2.629,0,0,1,0-5.257A2.617,2.617,0,0,1,3161.79,720.352Z" transform="translate(-3128 -697)"/>
</svg>
