<svg xmlns="http://www.w3.org/2000/svg" width="45" height="45" viewBox="0 0 45 45">
  <metadata><?xpacket begin="﻿" id="W5M0MpCehiHzreSzNTczkc9d"?>
<x:xmpmeta xmlns:x="adobe:ns:meta/" x:xmptk="Adobe XMP Core 5.6-c140 79.160451, 2017/05/06-01:08:21        ">
   <rdf:RDF xmlns:rdf="http://www.w3.org/1999/02/22-rdf-syntax-ns#">
      <rdf:Description rdf:about=""/>
   </rdf:RDF>
</x:xmpmeta>
                                                                                                    
                                                                                                    
                                                                                                    
                                                                                                    
                                                                                                    
                                                                                                    
                                                                                                    
                                                                                                    
                                                                                                    
                                                                                                    
                                                                                                    
                                                                                                    
                                                                                                    
                                                                                                    
                                                                                                    
                                                                                                    
                                                                                                    
                                                                                                    
                                                                                                    
                                                                                                    
                           
<?xpacket end="w"?></metadata>
<defs>
    <style>
      .cls-1 {
        fill: #fff;
        fill-rule: evenodd;
      }
    </style>
  </defs>
  <path id="icon" class="cls-1" d="M972.191,87.433a1.8,1.8,0,0,0-.384-1.116,1.755,1.755,0,0,0-.975-0.613l-9.925-2.323-0.008,0-1.75-.41a1.8,1.8,0,0,0-.4-0.047,1.72,1.72,0,0,0-1.078.382A1.775,1.775,0,0,0,957,84.7v5.471a1.769,1.769,0,0,0,.662,1.386,1.741,1.741,0,0,0,1.489.343l1.746-.409a0.071,0.071,0,0,1,.01,0l9.919-2.322A1.767,1.767,0,0,0,972.191,87.433Zm-1.03,17.174a3.464,3.464,0,0,1-3.065-1.857,3.539,3.539,0,0,1,.174-3.607l4.833-7.311a3.934,3.934,0,0,1-.658-1.145,3.814,3.814,0,0,1-1.156.485l-9.13,2.139V115.6a2.4,2.4,0,0,0,2.38,2.405h13.938V95.86l-4.365,7.089A3.448,3.448,0,0,1,971.161,104.607Zm15.57-20.525a3.764,3.764,0,0,1,.988-0.392l9.173-2.148V75.408a2.4,2.4,0,0,0-2.38-2.415H980.521v7.9h2.372A3.93,3.93,0,0,1,986.731,84.082ZM969.9,101.777a1.425,1.425,0,0,0,2.48.081l5.283-8.578H974.6l-4.634,7.01A1.443,1.443,0,0,0,969.9,101.777Zm2.37-17.7a3.931,3.931,0,0,1,3.839-3.186h2.371v-7.9H964.539a2.4,2.4,0,0,0-2.38,2.415v6.146l9.128,2.138A3.717,3.717,0,0,1,972.267,84.081Zm29.063-.778a1.715,1.715,0,0,0-1.477-.335l-1.694.4a0.1,0.1,0,0,0-.015.007L988.173,85.7a1.755,1.755,0,0,0-.544.227,1.666,1.666,0,0,0-.157.14,1.709,1.709,0,0,0-.284.255,1.8,1.8,0,0,0-.379,1.109,1.769,1.769,0,0,0,1.366,1.73l9.969,2.331c0.008,0,.014.007,0.021,0.009l1.687,0.4a1.738,1.738,0,0,0,1.488-.344,1.771,1.771,0,0,0,.66-1.386V84.7A1.761,1.761,0,0,0,1001.33,83.3Zm-14.776,7.384a3.938,3.938,0,0,1-.658,1.145l4.832,7.311a3.537,3.537,0,0,1,.175,3.607,3.457,3.457,0,0,1-6.016.2l-4.366-7.089v22.145h13.991a2.4,2.4,0,0,0,2.38-2.405V93.324l-9.179-2.15A3.824,3.824,0,0,1,986.554,90.686Zm-1.789-1.363V84.851a1.884,1.884,0,0,0-1.872-1.891h-6.787a1.884,1.884,0,0,0-1.872,1.891v4.473a1.884,1.884,0,0,0,1.872,1.892h6.787A1.884,1.884,0,0,0,984.765,89.324Zm-1.872,3.956h-1.555l5.284,8.578a1.424,1.424,0,0,0,2.479-.081,1.44,1.44,0,0,0-.072-1.487L984.4,93.28h-1.5Z" transform="translate(-957 -73)"/>
</svg>
