<svg xmlns="http://www.w3.org/2000/svg" width="36" height="37" viewBox="0 0 36 37">
  <metadata><?xpacket begin="﻿" id="W5M0MpCehiHzreSzNTczkc9d"?>
<x:xmpmeta xmlns:x="adobe:ns:meta/" x:xmptk="Adobe XMP Core 5.6-c140 79.160451, 2017/05/06-01:08:21        ">
   <rdf:RDF xmlns:rdf="http://www.w3.org/1999/02/22-rdf-syntax-ns#">
      <rdf:Description rdf:about=""/>
   </rdf:RDF>
</x:xmpmeta>
                                                                                                    
                                                                                                    
                                                                                                    
                                                                                                    
                                                                                                    
                                                                                                    
                                                                                                    
                                                                                                    
                                                                                                    
                                                                                                    
                                                                                                    
                                                                                                    
                                                                                                    
                                                                                                    
                                                                                                    
                                                                                                    
                                                                                                    
                                                                                                    
                                                                                                    
                                                                                                    
                           
<?xpacket end="w"?></metadata>
<defs>
    <style>
      .cls-1 {
        fill: #a2abb8;
        fill-rule: evenodd;
      }
    </style>
  </defs>
  <path id="icon" class="cls-1" d="M3128.68,205.462l10.55-17.389a4.213,4.213,0,0,1,5.88-1.405l16.92,10.833a4.572,4.572,0,0,1,1.36,6.047l-10.54,17.389a4.225,4.225,0,0,1-5.89,1.4l-16.92-10.832A4.382,4.382,0,0,1,3128.68,205.462Zm12.71-12.382a2.7,2.7,0,0,1,3.85-.812,2.852,2.852,0,0,1,.98,3.907,2.808,2.808,0,0,1-3.92.936A2.98,2.98,0,0,1,3141.39,193.08Zm11.84,7.583a2.7,2.7,0,0,1,3.85-.813,2.73,2.73,0,0,1,.86,3.831,2.7,2.7,0,0,1-3.8,1.013A2.98,2.98,0,0,1,3153.23,200.663Zm-19.22,4.589a2.81,2.81,0,0,1,3.92-.937,2.981,2.981,0,0,1,.91,4.032,2.809,2.809,0,0,1-3.92.936A2.98,2.98,0,0,1,3134.01,205.252Zm9.61-2.3a2.808,2.808,0,0,1,3.92-.936,2.98,2.98,0,0,1,.91,4.031,2.809,2.809,0,0,1-3.92.937A2.981,2.981,0,0,1,3143.62,202.957Zm2.23,9.878a2.808,2.808,0,0,1,3.92-.937,2.859,2.859,0,0,1,.79,3.955,2.7,2.7,0,0,1-3.8,1.013A2.98,2.98,0,0,1,3145.85,212.835Z" transform="translate(-3128 -186)"/>
</svg>
