<svg xmlns="http://www.w3.org/2000/svg" width="33.47" height="33.5" viewBox="0 0 33.47 33.5">
  <metadata><?xpacket begin="﻿" id="W5M0MpCehiHzreSzNTczkc9d"?>
<x:xmpmeta xmlns:x="adobe:ns:meta/" x:xmptk="Adobe XMP Core 5.6-c140 79.160451, 2017/05/06-01:08:21        ">
   <rdf:RDF xmlns:rdf="http://www.w3.org/1999/02/22-rdf-syntax-ns#">
      <rdf:Description rdf:about=""/>
   </rdf:RDF>
</x:xmpmeta>
                                                                                                    
                                                                                                    
                                                                                                    
                                                                                                    
                                                                                                    
                                                                                                    
                                                                                                    
                                                                                                    
                                                                                                    
                                                                                                    
                                                                                                    
                                                                                                    
                                                                                                    
                                                                                                    
                                                                                                    
                                                                                                    
                                                                                                    
                                                                                                    
                                                                                                    
                                                                                                    
                           
<?xpacket end="w"?></metadata>
<defs>
    <style>
      .cls-1 {
        fill: #fff;
        fill-rule: evenodd;
      }
    </style>
  </defs>
  <path id="icon" class="cls-1" d="M2616.88,92.87l9.81-15.744a3.979,3.979,0,0,1,5.47-1.272l15.72,9.808a4.075,4.075,0,0,1,1.27,5.475l-9.8,15.744a3.982,3.982,0,0,1-5.47,1.273l-15.73-9.808A3.906,3.906,0,0,1,2616.88,92.87Zm11.82-11.21a2.65,2.65,0,0,1,4.49,2.8A2.646,2.646,0,1,1,2628.7,81.66Zm11.01,6.865a2.537,2.537,0,0,1,3.57-.735,2.435,2.435,0,0,1,.81,3.468,2.549,2.549,0,0,1-3.54.918A2.662,2.662,0,0,1,2639.71,88.525Zm-17.88,4.155a2.651,2.651,0,1,1,.85,3.65A2.659,2.659,0,0,1,2621.83,92.68Zm8.94-2.077a2.646,2.646,0,1,1,.85,3.65A2.657,2.657,0,0,1,2630.77,90.6Zm2.07,8.943a2.656,2.656,0,0,1,3.65-.848,2.653,2.653,0,0,1-2.8,4.5A2.656,2.656,0,0,1,2632.84,99.546Z" transform="translate(-2616.25 -75.25)"/>
</svg>
