<svg xmlns="http://www.w3.org/2000/svg" width="42" height="18" viewBox="0 0 42 18">
  <metadata><?xpacket begin="﻿" id="W5M0MpCehiHzreSzNTczkc9d"?>
<x:xmpmeta xmlns:x="adobe:ns:meta/" x:xmptk="Adobe XMP Core 5.6-c140 79.160451, 2017/05/06-01:08:21        ">
   <rdf:RDF xmlns:rdf="http://www.w3.org/1999/02/22-rdf-syntax-ns#">
      <rdf:Description rdf:about=""/>
   </rdf:RDF>
</x:xmpmeta>
                                                                                                    
                                                                                                    
                                                                                                    
                                                                                                    
                                                                                                    
                                                                                                    
                                                                                                    
                                                                                                    
                                                                                                    
                                                                                                    
                                                                                                    
                                                                                                    
                                                                                                    
                                                                                                    
                                                                                                    
                                                                                                    
                                                                                                    
                                                                                                    
                                                                                                    
                                                                                                    
                           
<?xpacket end="w"?></metadata>
<defs>
    <style>
      .cls-1 {
        fill: #27303b;
        fill-rule: evenodd;
      }
    </style>
  </defs>
  <path id="icon:normal" class="cls-1" d="M3476,84h38a2,2,0,0,1,2,2h0a2,2,0,0,1-2,2h-38a2,2,0,0,1-2-2h0A2,2,0,0,1,3476,84Zm16,14h22a2,2,0,0,1,2,2h0a2,2,0,0,1-2,2h-22a2,2,0,0,1-2-2h0A2,2,0,0,1,3492,98Z" transform="translate(-3474 -84)"/>
</svg>
