<svg xmlns="http://www.w3.org/2000/svg" width="33.47" height="33.5" viewBox="0 0 33.47 33.5">
  <metadata><?xpacket begin="﻿" id="W5M0MpCehiHzreSzNTczkc9d"?>
<x:xmpmeta xmlns:x="adobe:ns:meta/" x:xmptk="Adobe XMP Core 5.6-c140 79.160451, 2017/05/06-01:08:21        ">
   <rdf:RDF xmlns:rdf="http://www.w3.org/1999/02/22-rdf-syntax-ns#">
      <rdf:Description rdf:about=""/>
   </rdf:RDF>
</x:xmpmeta>
                                                                                                    
                                                                                                    
                                                                                                    
                                                                                                    
                                                                                                    
                                                                                                    
                                                                                                    
                                                                                                    
                                                                                                    
                                                                                                    
                                                                                                    
                                                                                                    
                                                                                                    
                                                                                                    
                                                                                                    
                                                                                                    
                                                                                                    
                                                                                                    
                                                                                                    
                                                                                                    
                           
<?xpacket end="w"?></metadata>
<defs>
    <style>
      .cls-1 {
        fill: #fff;
        fill-rule: evenodd;
      }
    </style>
  </defs>
  <path id="icon" class="cls-1" d="M2583.88,117.87l9.81-15.744a3.98,3.98,0,0,1,5.47-1.272l15.72,9.808a4.075,4.075,0,0,1,1.27,5.475l-9.8,15.744a3.982,3.982,0,0,1-5.47,1.273l-15.73-9.808A3.906,3.906,0,0,1,2583.88,117.87Zm11.82-11.21a2.649,2.649,0,0,1,4.49,2.8A2.646,2.646,0,1,1,2595.7,106.66Zm11.01,6.865a2.536,2.536,0,0,1,3.57-.735,2.435,2.435,0,0,1,.81,3.468,2.548,2.548,0,0,1-3.54.917A2.662,2.662,0,0,1,2606.71,113.525Zm-17.88,4.155a2.651,2.651,0,1,1,.85,3.65A2.659,2.659,0,0,1,2588.83,117.68Zm8.94-2.077a2.646,2.646,0,1,1,.85,3.65A2.657,2.657,0,0,1,2597.77,115.6Zm2.07,8.943a2.656,2.656,0,0,1,3.65-.848,2.653,2.653,0,0,1-2.8,4.5A2.656,2.656,0,0,1,2599.84,124.546Z" transform="translate(-2583.25 -100.25)"/>
</svg>
