<svg xmlns="http://www.w3.org/2000/svg" width="39.03" height="31.969" viewBox="0 0 39.03 31.969">
  <metadata><?xpacket begin="﻿" id="W5M0MpCehiHzreSzNTczkc9d"?>
<x:xmpmeta xmlns:x="adobe:ns:meta/" x:xmptk="Adobe XMP Core 5.6-c140 79.160451, 2017/05/06-01:08:21        ">
   <rdf:RDF xmlns:rdf="http://www.w3.org/1999/02/22-rdf-syntax-ns#">
      <rdf:Description rdf:about=""/>
   </rdf:RDF>
</x:xmpmeta>
                                                                                                    
                                                                                                    
                                                                                                    
                                                                                                    
                                                                                                    
                                                                                                    
                                                                                                    
                                                                                                    
                                                                                                    
                                                                                                    
                                                                                                    
                                                                                                    
                                                                                                    
                                                                                                    
                                                                                                    
                                                                                                    
                                                                                                    
                                                                                                    
                                                                                                    
                                                                                                    
                           
<?xpacket end="w"?></metadata>
<defs>
    <style>
      .cls-1 {
        fill: #818d9e;
        fill-rule: evenodd;
      }
    </style>
  </defs>
  <path id="normal" class="cls-1" d="M2819.58,253.306a1.33,1.33,0,0,0-1.3-.224c-6.82,2.482-27.81,10.23-36.39,13.353a1.31,1.31,0,0,0,.08,2.5c3.85,1.132,8.9,2.708,8.9,2.708s2.36,7.012,3.59,10.578a1.411,1.411,0,0,0,2.3.59l5.04-4.674s5.8,4.188,9.1,6.5a1.955,1.955,0,0,0,1.8.232,1.85,1.85,0,0,0,1.17-1.343c1.42-6.531,4.84-23.062,6.13-29A1.248,1.248,0,0,0,2819.58,253.306Zm-6.69,6.008c-6.01,5.334-16.56,14.69-16.56,14.69l-0.6,5.609-2.73-8.857s12.37-7.77,19.33-12.147a0.48,0.48,0,0,1,.62.1A0.441,0.441,0,0,1,2812.89,259.314Z" transform="translate(-2781 -253)"/>
</svg>
